<svg xmlns="http://www.w3.org/2000/svg" width="200" height="26" viewBox="0 0 200 26" fill="none">
    <g clip-path="url(#clip0_450_849)">
        <mask id="mask0_450_849" maskUnits="userSpaceOnUse" x="-1" y="0" width="201" height="26">
            <path d="M199.874 0.674072H-0.000976562V25.2121H199.874V0.674072Z" fill="white"/>
        </mask>
        <g mask="url(#mask0_450_849)">
            <path fill-rule="evenodd" clip-rule="evenodd" d="M143.719 23.1744V2.81714H145.043V23.1744H143.719Z" fill="#161616"/>
            <path d="M119.076 13.0486C118.383 12.5864 117.606 12.2503 116.87 11.8511C116.387 11.578 115.883 11.3469 115.483 11.0108C114.79 10.4436 114.937 9.30913 115.651 8.80492C116.702 8.11162 118.445 8.48978 118.635 9.91837C118.635 9.93936 118.656 9.96035 118.698 9.96035H120.294C120.336 9.96035 120.357 9.93936 120.357 9.89738C120.273 8.90996 119.895 8.09061 119.202 7.5654C118.53 7.0612 117.774 6.78809 116.954 6.78809C112.753 6.78809 112.375 11.2209 114.643 12.6285C114.895 12.7965 117.122 13.91 117.899 14.3932C118.677 14.8764 118.929 15.7587 118.592 16.473C118.278 17.1033 117.479 17.5445 116.681 17.5024C115.798 17.4604 115.126 16.9772 114.895 16.242C114.853 16.1158 114.832 15.8428 114.832 15.7378C114.832 15.7167 114.812 15.6747 114.769 15.6747H113.046C113.025 15.6747 112.983 15.6957 112.983 15.7378C112.983 16.9772 113.299 17.6705 114.139 18.3008C114.937 18.889 115.798 19.1412 116.702 19.1412C119.055 19.1412 120.273 17.8175 120.504 16.431C120.693 15.0655 120.273 13.847 119.076 13.0486Z" fill="#161616"/>
            <path d="M92.7309 6.9978C92.71 6.9978 92.689 7.01881 92.6681 7.03982L91.2606 11.7037C91.2397 11.7667 91.1553 11.7667 91.1344 11.7037L89.7269 7.03982C89.7269 7.01881 89.706 6.9978 89.6641 6.9978H87.0382C87.0173 6.9978 86.9746 7.01881 86.9746 7.06083V18.9516C86.9746 18.9727 86.9955 19.0147 87.0382 19.0147H88.7609C88.7819 19.0147 88.8237 18.9937 88.8237 18.9516V9.91802C88.8237 9.85496 88.929 9.83397 88.9499 9.89694L90.3783 14.5819L90.4829 14.918C90.4829 14.9391 90.5046 14.9601 90.5464 14.9601H91.8695C91.8912 14.9601 91.9121 14.9391 91.933 14.918L92.0376 14.5819L93.4668 9.89694C93.4877 9.83397 93.5922 9.85496 93.5922 9.91802V18.9516C93.5922 18.9727 93.614 19.0147 93.6558 19.0147H95.3786C95.3995 19.0147 95.4413 18.9937 95.4413 18.9516V7.06083C95.4413 7.03982 95.4204 6.9978 95.3786 6.9978H92.7309Z" fill="#161616"/>
            <path d="M70.5458 6.9978H62.4155C62.3945 6.9978 62.3525 7.01881 62.3525 7.06083V8.55243C62.3525 8.57344 62.3735 8.61546 62.4155 8.61546H65.5669V18.9516C65.5669 18.9727 65.5878 19.0147 65.6298 19.0147H67.3525C67.3736 19.0147 67.4156 18.9937 67.4156 18.9516V8.61546H70.5668C70.5879 8.61546 70.6299 8.59446 70.6299 8.55243V7.06083C70.6089 7.03982 70.5879 6.9978 70.5458 6.9978Z" fill="#161616"/>
            <path d="M76.5755 13.7623L77.8361 9.11944C77.857 9.05647 77.9411 9.05647 77.9621 9.11944L79.2226 13.7623C79.2226 13.8044 79.2016 13.8464 79.1596 13.8464H76.6386C76.5966 13.8464 76.5755 13.8044 76.5755 13.7623ZM80.6932 19.0144H82.2689C82.3108 19.0144 82.3318 18.9725 82.3318 18.9305L79.0965 6.99758C79.0965 6.97657 79.0755 6.95557 79.0336 6.95557H76.7856C76.7646 6.95557 76.7436 6.97657 76.7226 6.99758L73.4873 18.9305C73.4873 18.9725 73.5083 19.0144 73.5503 19.0144H75.1259C75.1469 19.0144 75.1679 18.9935 75.189 18.9725L76.1344 15.5061C76.1344 15.485 76.1553 15.464 76.1974 15.464H79.6638C79.6848 15.464 79.7058 15.485 79.7268 15.5061L80.6722 18.9725C80.6302 18.9935 80.6722 19.0144 80.6932 19.0144Z" fill="#161616"/>
            <path d="M103.277 13.7623L104.537 9.11944C104.559 9.05647 104.643 9.05647 104.664 9.11944L105.924 13.7623C105.924 13.8044 105.903 13.8464 105.861 13.8464H103.34C103.298 13.8464 103.277 13.8044 103.277 13.7623ZM107.395 19.0144H108.97C109.012 19.0144 109.033 18.9725 109.033 18.9305L105.798 6.99758C105.798 6.97657 105.777 6.95557 105.735 6.95557H103.487C103.466 6.95557 103.445 6.97657 103.424 6.99758L100.188 18.9305C100.188 18.9725 100.21 19.0144 100.252 19.0144H101.828C101.849 19.0144 101.869 18.9935 101.89 18.9725L102.836 15.5061C102.836 15.485 102.857 15.464 102.899 15.464H106.365C106.386 15.464 106.407 15.485 106.428 15.5061L107.374 18.9725C107.332 18.9935 107.353 19.0144 107.395 19.0144Z" fill="#161616"/>
            <path d="M52.4366 17.2502V13.5528C52.4366 13.5317 52.4576 13.4897 52.4997 13.4897H57.0795C57.1005 13.4897 57.1425 13.4687 57.1425 13.4266V11.9351C57.1425 11.914 57.1216 11.8721 57.0795 11.8721H52.4997C52.4786 11.8721 52.4366 11.8511 52.4366 11.809V8.65774C52.4366 8.63673 52.4576 8.59471 52.4997 8.59471H57.7097C57.7308 8.59471 57.7728 8.5737 57.7728 8.53168V7.04007C57.7728 7.01907 57.7518 6.97705 57.7097 6.97705H50.6509C50.6299 6.97705 50.5879 6.99806 50.5879 7.04007V18.9099C50.5879 18.9309 50.6089 18.9729 50.6509 18.9729H57.9199C57.9409 18.9729 57.9829 18.9519 57.9829 18.9099V17.3973C57.9829 17.3763 57.9619 17.3343 57.9199 17.3343H52.4786C52.4576 17.3133 52.4366 17.2923 52.4366 17.2502Z" fill="#161616"/>
            <path d="M134.791 18.9094L128.845 12.7749C128.824 12.7539 128.824 12.7118 128.845 12.6909L134.203 7.12359C134.244 7.08158 134.203 7.01855 134.161 7.01855H131.976C131.962 7.01855 131.948 7.02555 131.934 7.03956L127.396 11.7665C127.354 11.8085 127.291 11.7665 127.291 11.7245V7.08158C127.291 7.06057 127.27 7.01855 127.228 7.01855H125.505C125.484 7.01855 125.442 7.03956 125.442 7.08158V18.9725C125.442 18.9935 125.463 19.0354 125.505 19.0354H127.228C127.249 19.0354 127.291 19.0144 127.291 18.9725V13.7413C127.291 13.6993 127.354 13.6573 127.396 13.6993L132.543 19.0144C132.543 19.0144 132.564 19.0354 132.585 19.0354H134.77C134.812 19.0144 134.833 18.9514 134.791 18.9094Z" fill="#161616"/>
            <path d="M45.378 6.9978H42.773C42.7519 6.9978 42.7309 7.01881 42.71 7.03982L41.3024 11.7037C41.2814 11.7667 41.1973 11.7667 41.1764 11.7037L39.7688 7.03982C39.7688 7.01881 39.7478 6.9978 39.7057 6.9978H37.0797C37.0587 6.9978 37.0166 7.01881 37.0166 7.06083V18.9516C37.0166 18.9727 37.0377 19.0147 37.0797 19.0147H38.8024C38.8233 19.0147 38.8654 18.9937 38.8654 18.9516V9.91802C38.8654 9.85496 38.9704 9.83397 38.9914 9.89694L40.42 14.5819L40.525 14.918C40.525 14.9391 40.546 14.9601 40.5881 14.9601H41.9116C41.9326 14.9601 41.9536 14.9391 41.9747 14.918L42.0797 14.5819L43.5083 9.89694C43.5293 9.83397 43.6343 9.85496 43.6343 9.91802V18.9516C43.6343 18.9727 43.6553 19.0147 43.6974 19.0147H45.4201C45.4411 19.0147 45.483 18.9937 45.483 18.9516V7.06083C45.4411 7.03982 45.4201 6.9978 45.378 6.9978Z" fill="#161616"/>
            <path d="M157.343 19.3432C156.834 19.3432 156.356 19.2881 155.904 19.1778C155.452 19.0675 155.04 18.9125 154.665 18.7103C154.289 18.5081 153.963 18.2717 153.685 17.9987C153.407 17.7281 153.188 17.4367 153.025 17.1242L154.326 16.1525C154.662 16.6725 155.079 17.0822 155.584 17.3842C156.085 17.6835 156.684 17.8358 157.377 17.8358C158.013 17.8358 158.548 17.673 158.99 17.35C159.428 17.027 159.649 16.5753 159.649 15.9976C159.649 15.5012 159.499 15.0837 159.197 14.7502C158.898 14.414 158.456 14.1383 157.878 13.9177L156.251 13.2927C155.279 12.9356 154.573 12.4891 154.128 11.9587C153.685 11.4282 153.462 10.7402 153.462 9.89719C153.462 9.40085 153.559 8.94917 153.755 8.54478C153.953 8.14037 154.22 7.79373 154.562 7.50486C154.904 7.216 155.308 6.9954 155.775 6.84572C156.243 6.69603 156.754 6.61987 157.309 6.61987C158.083 6.61987 158.779 6.77481 159.396 7.08731C160.014 7.39982 160.515 7.80423 160.896 8.30057L159.717 9.34047C159.405 8.97024 159.053 8.67609 158.659 8.4555C158.265 8.23491 157.802 8.12724 157.272 8.12724C156.973 8.12724 156.687 8.16926 156.413 8.24804C156.143 8.32945 155.904 8.445 155.702 8.59468C155.499 8.74437 155.339 8.92291 155.224 9.13298C155.109 9.34047 155.05 9.57154 155.05 9.82628C155.05 10.3463 155.203 10.748 155.51 11.0316C155.817 11.3153 156.282 11.5726 156.904 11.8037L158.396 12.3762C159.31 12.7229 160.014 13.1746 160.51 13.7286C161.006 14.2827 161.256 15.018 161.256 15.9293C161.256 16.4493 161.158 16.9193 160.962 17.3421C160.765 17.7649 160.494 18.122 160.147 18.4162C159.801 18.7103 159.389 18.9388 158.908 19.1016C158.428 19.2644 157.905 19.3432 157.341 19.3432H157.343Z" fill="#161616"/>
            <path d="M163.028 10.4672H164.52V11.8013C164.82 11.2813 165.214 10.9005 165.699 10.6563C166.185 10.4147 166.711 10.2913 167.278 10.2913C167.763 10.2913 168.207 10.3727 168.611 10.5329C169.016 10.693 169.36 10.9294 169.643 11.234C169.927 11.5413 170.148 11.9089 170.311 12.3422C170.473 12.7756 170.553 13.2587 170.553 13.7892V19.128H169.079V14.015C169.079 13.2876 168.89 12.7125 168.517 12.2897C168.141 11.8669 167.648 11.6569 167.036 11.6569C166.689 11.6569 166.363 11.7251 166.057 11.8643C165.749 12.0035 165.484 12.2083 165.258 12.4788C165.032 12.7493 164.853 13.0827 164.719 13.474C164.586 13.8679 164.52 14.317 164.52 14.8265V19.1253H163.028V10.4594V10.4672Z" fill="#161616"/>
            <path d="M176.529 19.3066C175.917 19.3066 175.353 19.1884 174.838 18.9521C174.323 18.7157 173.877 18.3927 173.493 17.9804C173.112 17.5707 172.816 17.0928 172.601 16.5492C172.387 16.0056 172.28 15.4226 172.28 14.7976C172.28 14.1726 172.387 13.5896 172.601 13.046C172.813 12.5024 173.112 12.0271 173.493 11.6175C173.874 11.2078 174.323 10.8848 174.838 10.6458C175.353 10.4094 175.915 10.2913 176.529 10.2913C177.189 10.2913 177.787 10.4384 178.331 10.7324C178.874 11.0265 179.289 11.3811 179.578 11.7986V10.4646H181.07V19.1306H179.578V17.7965C179.289 18.2115 178.874 18.5686 178.331 18.8627C177.787 19.1569 177.185 19.304 176.529 19.304V19.3066ZM176.754 17.9384C177.194 17.9384 177.592 17.857 177.95 17.6968C178.307 17.5366 178.617 17.3134 178.877 17.0297C179.137 16.7461 179.339 16.4152 179.483 16.0345C179.628 15.6537 179.699 15.2441 179.699 14.8028C179.699 14.3617 179.628 13.9547 179.483 13.5712C179.339 13.1905 179.137 12.8569 178.877 12.5759C178.617 12.2949 178.307 12.0717 177.95 11.9089C177.592 11.7461 177.194 11.6673 176.754 11.6673C176.316 11.6673 175.915 11.7488 175.549 11.9089C175.185 12.0691 174.874 12.2924 174.614 12.5759C174.354 12.8595 174.153 13.1905 174.008 13.5712C173.863 13.952 173.79 14.3617 173.79 14.8028C173.79 15.2441 173.861 15.6511 174.008 16.0345C174.153 16.4152 174.354 16.7487 174.614 17.0297C174.874 17.3134 175.187 17.5339 175.549 17.6968C175.911 17.8596 176.314 17.9384 176.754 17.9384Z" fill="#161616"/>
            <path d="M183.602 22.7576V10.4702H185.093V11.8043C185.382 11.3893 185.797 11.0322 186.34 10.7381C186.884 10.444 187.485 10.2969 188.142 10.2969C188.743 10.2969 189.303 10.415 189.823 10.6514C190.342 10.8878 190.794 11.2108 191.175 11.6231C191.556 12.0327 191.852 12.5106 192.067 13.0516C192.281 13.5952 192.388 14.1782 192.388 14.8033C192.388 15.4282 192.281 16.0112 192.067 16.5548C191.855 17.0984 191.556 17.5738 191.175 17.9861C190.794 18.3957 190.342 18.7187 189.823 18.9577C189.303 19.194 188.743 19.3122 188.142 19.3122C187.483 19.3122 186.882 19.1652 186.34 18.871C185.797 18.5769 185.382 18.2197 185.093 17.8048V22.7628H183.602V22.7576ZM187.916 17.9387C188.354 17.9387 188.753 17.8574 189.111 17.6972C189.468 17.5344 189.778 17.3138 190.038 17.0302C190.298 16.7465 190.5 16.4157 190.644 16.0349C190.789 15.6541 190.862 15.2444 190.862 14.8033C190.862 14.362 190.789 13.955 190.644 13.5716C190.5 13.1908 190.298 12.8573 190.038 12.5763C189.778 12.2954 189.468 12.0721 189.111 11.9093C188.753 11.7465 188.354 11.6677 187.916 11.6677C187.477 11.6677 187.078 11.7491 186.721 11.9093C186.364 12.0721 186.054 12.2927 185.794 12.5763C185.534 12.86 185.332 13.1908 185.187 13.5716C185.043 13.9524 184.97 14.362 184.97 14.8033C184.97 15.2444 185.04 15.6514 185.187 16.0349C185.332 16.4157 185.534 16.7492 185.794 17.0302C186.054 17.3138 186.364 17.5344 186.721 17.6972C187.078 17.8599 187.477 17.9387 187.916 17.9387Z" fill="#161616"/>
            <path d="M196.86 19.3066C196.085 19.3066 195.392 19.1411 194.78 18.8129C194.168 18.4846 193.73 17.9778 193.462 17.295L194.675 16.6201C194.838 17.0587 195.121 17.3974 195.533 17.6338C195.943 17.8701 196.392 17.9883 196.878 17.9883C197.293 17.9883 197.65 17.8884 197.944 17.6836C198.239 17.4814 198.385 17.1952 198.385 16.8249C198.385 16.5124 198.276 16.2525 198.057 16.045C197.837 15.8375 197.445 15.6458 196.878 15.4725L196.012 15.1941C195.295 14.9867 194.754 14.6663 194.391 14.233C194.026 13.7997 193.845 13.2771 193.845 12.6653C193.845 12.2949 193.924 11.9641 194.079 11.67C194.234 11.3759 194.449 11.1264 194.72 10.9242C194.99 10.722 195.305 10.567 195.665 10.4567C196.022 10.3465 196.411 10.2913 196.826 10.2913C197.472 10.2913 198.039 10.4226 198.525 10.6826C199.011 10.9426 199.396 11.3155 199.686 11.8013L198.578 12.5628C198.38 12.2845 198.136 12.0507 197.842 11.8617C197.548 11.67 197.193 11.5754 196.776 11.5754C196.406 11.5754 196.075 11.6673 195.778 11.8538C195.484 12.0376 195.337 12.2924 195.337 12.6153C195.337 12.8806 195.421 13.1169 195.589 13.327C195.757 13.5344 196.083 13.7131 196.569 13.8653L197.521 14.1595C198.272 14.3905 198.853 14.7083 199.262 15.1128C199.672 15.5171 199.877 16.0476 199.877 16.7068C199.877 17.1216 199.801 17.492 199.651 17.8149C199.502 18.138 199.289 18.4111 199.018 18.6291C198.748 18.8496 198.425 19.0151 198.057 19.1306C197.687 19.2462 197.288 19.304 196.862 19.304L196.86 19.3066Z" fill="#161616"/>
        </g>
        <path d="M26.5354 12.6059L27.6553 11.2994L27.1684 10.9446L27.9474 10.2349L27.3469 9.78327L28.126 9.20263L27.6228 8.81553L28.4344 4.88003L27.2008 1.23486M27.2008 1.23486L19.2803 4.15423H12.6745L4.75403 1.23486L3.52051 4.88003L4.34826 8.81553L3.82889 9.20263L4.62418 9.78327L4.02365 10.2349L4.80272 10.9446L4.3158 11.2994L5.43571 12.6059L3.7315 17.8317L5.30586 23.1704L10.8405 21.6543L11.9117 22.5252L14.1028 24.0091H17.8521L20.0432 22.5252L21.1144 21.6543L26.6652 23.1704L28.2558 17.8317L26.5354 12.6059" fill="#F5841F"/>
        <path d="M27.0248 1.23486L17.3027 8.34779L19.1043 4.15423L27.0248 1.23486Z" fill="#E27625"/>
        <path d="M4.57812 1.23486L14.219 8.4123L12.4986 4.15423L4.57812 1.23486Z" fill="#E27625"/>
        <path d="M23.5354 17.7351L20.9385 21.6383L26.4893 23.1545L28.0799 17.8158L23.5354 17.7351Z" fill="#E27625"/>
        <path d="M3.55566 17.8158L5.13002 23.1545L10.6646 21.6383L8.08398 17.7351L3.55566 17.8158Z" fill="#E27625"/>
        <path d="M10.372 11.1221L8.83008 13.4286L14.316 13.6705L14.1375 7.83179L10.372 11.1221Z" fill="#E27625"/>
        <path d="M21.2467 11.1222L17.4163 7.76733L17.3027 13.6706L22.7886 13.4286L21.2467 11.1222Z" fill="#E27625"/>
        <path d="M10.6641 21.6382L13.9913 20.0576L11.1185 17.864L10.6641 21.6382Z" fill="#E27625"/>
        <path d="M17.627 20.0576L20.938 21.6382L20.4835 17.864L17.627 20.0576Z" fill="#E27625"/>
        <path d="M20.938 21.6383L17.627 20.0576L17.9029 22.1867L17.8704 23.0899L20.938 21.6383Z" fill="#D7C1B3"/>
        <path d="M10.6641 21.6383L13.7479 23.0899L13.7316 22.1867L13.9913 20.0576L10.6641 21.6383Z" fill="#D7C1B3"/>
        <path d="M13.7986 16.4445L11.0557 15.6542L13.0033 14.7671L13.7986 16.4445Z" fill="#2F343B"/>
        <path d="M17.8066 16.4445L18.6182 14.7671L20.5658 15.6542L17.8066 16.4445Z" fill="#2F343B"/>
        <path d="M10.6646 21.6383L11.1516 17.7351L8.08398 17.8158L10.6646 21.6383Z" fill="#CC6228"/>
        <path d="M20.4678 17.7351L20.9385 21.6383L23.5353 17.8158L20.4678 17.7351Z" fill="#CC6228"/>
        <path d="M22.7886 13.4287L17.3027 13.6706L17.8059 16.4448L18.6174 14.7674L20.5651 15.6545L22.7886 13.4287Z" fill="#CC6228"/>
        <path d="M11.0537 15.6545L13.0013 14.7674L13.7966 16.4448L14.316 13.6706L8.83008 13.4287L11.0537 15.6545Z" fill="#CC6228"/>
        <path d="M8.83008 13.4287L11.1186 17.8642L11.0537 15.6545L8.83008 13.4287Z" fill="#E27625"/>
        <path d="M20.5655 15.6545L20.4844 17.8642L22.7891 13.4287L20.5655 15.6545Z" fill="#E27625"/>
        <path d="M14.3163 13.6707L13.7969 16.4449L14.4461 19.7352L14.5922 15.4126L14.3163 13.6707Z" fill="#E27625"/>
        <path d="M17.3033 13.6707L17.0273 15.3965L17.1572 19.7352L17.8064 16.4449L17.3033 13.6707Z" fill="#E27625"/>
        <path d="M17.8064 16.4444L17.1572 19.7347L17.6279 20.0573L20.4845 17.8637L20.5656 15.6541L17.8064 16.4444Z" fill="#F5841F"/>
        <path d="M11.0557 15.6541L11.1206 17.8637L13.9934 20.0573L14.4478 19.7347L13.7986 16.4444L11.0557 15.6541Z" fill="#F5841F"/>
        <path d="M17.8704 23.0898L17.9029 22.1866L17.6432 21.9769H13.9589L13.7316 22.1866L13.7479 23.0898L10.6641 21.6382L11.7353 22.5092L13.9264 24.0092H17.6756L19.8668 22.5092L20.938 21.6382L17.8704 23.0898Z" fill="#C0AD9E"/>
        <path d="M17.6277 20.0574L17.1571 19.7349H14.4466L13.9921 20.0574L13.7324 22.1865L13.9596 21.9768H17.644L17.9037 22.1865L17.6277 20.0574Z" fill="#2F343B"/>
        <path d="M27.4464 8.81553L28.2579 4.88004L27.0244 1.23486L17.627 8.10585L21.2464 11.122L26.359 12.6059L27.4789 11.2994L26.992 10.9446L27.771 10.251L27.1705 9.78328L27.9496 9.20263L27.4464 8.81553Z" fill="#763E1A"/>
        <path d="M3.34473 4.88004L4.17248 8.81553L3.65311 9.20263L4.43217 9.7994L3.83164 10.251L4.61071 10.9446L4.12379 11.2994L5.25993 12.6059L10.3725 11.122L13.9919 8.10585L4.57825 1.23486L3.34473 4.88004Z" fill="#763E1A"/>
        <path d="M26.3598 12.6059L21.2472 11.1221L22.7891 13.4285L20.4844 17.864L23.5357 17.8156H28.0803L26.3598 12.6059Z" fill="#F5841F"/>
        <path d="M10.3725 11.1221L5.25987 12.6059L3.55566 17.8156H8.08398L11.1191 17.864L8.83058 13.4285L10.3725 11.1221Z" fill="#F5841F"/>
        <path d="M17.3023 13.6707L17.6269 8.10616L19.1039 4.15454H12.498L13.9913 8.10616L14.3159 13.6707L14.4457 15.4126V19.7352H17.1562L17.1724 15.4126L17.3023 13.6707Z" fill="#F5841F"/>
    </g>
    <defs>
        <clipPath id="clip0_450_849">
            <rect width="199.875" height="25.089" fill="white" transform="translate(0 0.398682)"/>
        </clipPath>
    </defs>
</svg>