<svg width="20" height="20" viewBox="0 0 20 20" fill="none" xmlns="http://www.w3.org/2000/svg">
    <path d="M13.7692 7.88461V11.8077C13.7692 11.9811 13.7003 12.1474 13.5777 12.27C13.4551 12.3926 13.2888 12.4615 13.1154 12.4615C12.942 12.4615 12.7757 12.3926 12.653 12.27C12.5304 12.1474 12.4615 11.9811 12.4615 11.8077V9.46283L8.34721 13.578C8.28647 13.6387 8.21435 13.6869 8.13497 13.7198C8.0556 13.7527 7.97053 13.7696 7.88462 13.7696C7.79871 13.7696 7.71363 13.7527 7.63426 13.7198C7.55489 13.6869 7.48277 13.6387 7.42202 13.578C7.36127 13.5172 7.31308 13.4451 7.28021 13.3657C7.24733 13.2864 7.23041 13.2013 7.23041 13.1154C7.23041 13.0295 7.24733 12.9444 7.28021 12.865C7.31308 12.7857 7.36127 12.7135 7.42202 12.6528L11.5372 8.53846H9.19231C9.0189 8.53846 8.85259 8.46957 8.72997 8.34695C8.60735 8.22433 8.53846 8.05802 8.53846 7.88461C8.53846 7.7112 8.60735 7.5449 8.72997 7.42228C8.85259 7.29966 9.0189 7.23077 9.19231 7.23077H13.1154C13.2888 7.23077 13.4551 7.29966 13.5777 7.42228C13.7003 7.5449 13.7692 7.7112 13.7692 7.88461ZM19 10.5C19 12.1811 18.5015 13.8245 17.5675 15.2223C16.6335 16.6202 15.306 17.7096 13.7528 18.353C12.1996 18.9963 10.4906 19.1646 8.84173 18.8367C7.1929 18.5087 5.67834 17.6992 4.4896 16.5104C3.30085 15.3217 2.4913 13.8071 2.16333 12.1583C1.83535 10.5094 2.00368 8.80036 2.64703 7.24719C3.29037 5.69402 4.37984 4.3665 5.77766 3.43251C7.17547 2.49852 8.81886 2 10.5 2C12.7536 2.00238 14.9142 2.89868 16.5078 4.49222C18.1013 6.08576 18.9976 8.24639 19 10.5ZM17.6923 10.5C17.6923 9.07749 17.2705 7.68694 16.4802 6.50417C15.6899 5.3214 14.5666 4.39954 13.2524 3.85517C11.9382 3.31081 10.492 3.16837 9.09685 3.44589C7.70168 3.72341 6.42014 4.40841 5.41427 5.41427C4.40841 6.42013 3.72341 7.70168 3.44589 9.09685C3.16838 10.492 3.31081 11.9382 3.85518 13.2524C4.39955 14.5666 5.3214 15.6899 6.50417 16.4802C7.68694 17.2705 9.0775 17.6923 10.5 17.6923C12.4069 17.6901 14.235 16.9317 15.5833 15.5833C16.9317 14.235 17.6901 12.4069 17.6923 10.5Z" fill="#AFAFAF"/>
</svg>
