<svg width="20" height="20" viewBox="0 0 20 20" fill="none" xmlns="http://www.w3.org/2000/svg">
    <path d="M10.5 2C8.81886 2 7.17547 2.49852 5.77766 3.43251C4.37984 4.3665 3.29037 5.69402 2.64703 7.24719C2.00368 8.80036 1.83535 10.5094 2.16333 12.1583C2.4913 13.8071 3.30085 15.3217 4.4896 16.5104C5.67834 17.6992 7.1929 18.5087 8.84173 18.8367C10.4906 19.1646 12.1996 18.9963 13.7528 18.353C15.306 17.7096 16.6335 16.6202 17.5675 15.2223C18.5015 13.8245 19 12.1811 19 10.5C18.9976 8.24639 18.1013 6.08576 16.5078 4.49222C14.9142 2.89868 12.7536 2.00238 10.5 2ZM10.5 17.6923C9.0775 17.6923 7.68694 17.2705 6.50417 16.4802C5.3214 15.6899 4.39955 14.5666 3.85518 13.2524C3.31081 11.9382 3.16838 10.492 3.44589 9.09685C3.72341 7.70168 4.40841 6.42013 5.41427 5.41427C6.42014 4.40841 7.70168 3.72341 9.09685 3.44589C10.492 3.16837 11.9382 3.31081 13.2524 3.85517C14.5666 4.39954 15.6899 5.3214 16.4802 6.50417C17.2705 7.68694 17.6923 9.07749 17.6923 10.5C17.6901 12.4069 16.9317 14.235 15.5833 15.5833C14.235 16.9317 12.4069 17.6901 10.5 17.6923ZM13.578 7.42202C13.6388 7.48274 13.687 7.55485 13.7199 7.63423C13.7528 7.71361 13.7697 7.79869 13.7697 7.88461C13.7697 7.97054 13.7528 8.05562 13.7199 8.135C13.687 8.21437 13.6388 8.28649 13.578 8.34721L9.46284 12.4615H11.8077C11.9811 12.4615 12.1474 12.5304 12.27 12.653C12.3927 12.7757 12.4615 12.942 12.4615 13.1154C12.4615 13.2888 12.3927 13.4551 12.27 13.5777C12.1474 13.7003 11.9811 13.7692 11.8077 13.7692H7.88462C7.71121 13.7692 7.5449 13.7003 7.42228 13.5777C7.29966 13.4551 7.23077 13.2888 7.23077 13.1154V9.19231C7.23077 9.0189 7.29966 8.85259 7.42228 8.72997C7.5449 8.60735 7.71121 8.53846 7.88462 8.53846C8.05803 8.53846 8.22434 8.60735 8.34696 8.72997C8.46958 8.85259 8.53846 9.0189 8.53846 9.19231V11.5372L12.6528 7.42202C12.7135 7.36123 12.7856 7.313 12.865 7.28009C12.9444 7.24719 13.0295 7.23025 13.1154 7.23025C13.2013 7.23025 13.2864 7.24719 13.3658 7.28009C13.4451 7.313 13.5173 7.36123 13.578 7.42202Z" fill="#AFAFAF"/>
</svg>
