<svg width="50" height="51" viewBox="0 0 50 51" fill="none" xmlns="http://www.w3.org/2000/svg">
    <path d="M25 5.63062C20.9826 5.63062 17.0554 6.82192 13.715 9.05389C10.3746 11.2859 7.77111 14.4582 6.23371 18.1699C4.6963 21.8815 4.29405 25.9656 5.07781 29.9059C5.86157 33.8461 7.79615 37.4655 10.6369 40.3062C13.4777 43.147 17.097 45.0816 21.0372 45.8653C24.9775 46.6491 29.0616 46.2468 32.7733 44.7094C36.4849 43.172 39.6573 40.5685 41.8892 37.2281C44.1212 33.8878 45.3125 29.9605 45.3125 25.9431C45.3068 20.5577 43.1649 15.3944 39.3568 11.5863C35.5487 7.77819 30.3855 5.6363 25 5.63062ZM33.918 22.3611L22.9805 33.2986C22.8354 33.4439 22.663 33.5591 22.4734 33.6377C22.2837 33.7164 22.0803 33.7568 21.875 33.7568C21.6697 33.7568 21.4663 33.7164 21.2767 33.6377C21.087 33.5591 20.9147 33.4439 20.7695 33.2986L16.082 28.6111C15.7889 28.3179 15.6241 27.9202 15.6241 27.5056C15.6241 27.091 15.7889 26.6933 16.082 26.4001C16.3752 26.107 16.7729 25.9422 17.1875 25.9422C17.6021 25.9422 17.9998 26.107 18.293 26.4001L21.875 29.9841L31.707 20.1501C31.8522 20.005 32.0246 19.8898 32.2142 19.8112C32.4039 19.7327 32.6072 19.6922 32.8125 19.6922C33.0178 19.6922 33.2211 19.7327 33.4108 19.8112C33.6005 19.8898 33.7728 20.005 33.918 20.1501C34.0632 20.2953 34.1783 20.4677 34.2569 20.6573C34.3354 20.847 34.3759 21.0503 34.3759 21.2556C34.3759 21.4609 34.3354 21.6642 34.2569 21.8539C34.1783 22.0436 34.0632 22.2159 33.918 22.3611Z" fill="#0D9049"/>
</svg>
