<svg width="21" height="20" viewBox="0 0 21 20" fill="none" xmlns="http://www.w3.org/2000/svg">
    <path d="M10.5 1.875C8.89303 1.875 7.32214 2.35152 5.986 3.24431C4.64985 4.1371 3.60844 5.40605 2.99348 6.8907C2.37852 8.37535 2.21762 10.009 2.53112 11.5851C2.84463 13.1612 3.61846 14.6089 4.75476 15.7452C5.89106 16.8815 7.3388 17.6554 8.9149 17.9689C10.491 18.2824 12.1247 18.1215 13.6093 17.5065C15.094 16.8916 16.3629 15.8502 17.2557 14.514C18.1485 13.1779 18.625 11.607 18.625 10C18.6227 7.84581 17.766 5.78051 16.2427 4.25727C14.7195 2.73403 12.6542 1.87727 10.5 1.875ZM10.5 16.875C9.14026 16.875 7.81105 16.4718 6.68046 15.7164C5.54987 14.9609 4.66868 13.8872 4.14833 12.6309C3.62798 11.3747 3.49183 9.99237 3.7571 8.65875C4.02238 7.32513 4.67716 6.10013 5.63864 5.13864C6.60013 4.17716 7.82514 3.52237 9.15876 3.2571C10.4924 2.99183 11.8747 3.12798 13.131 3.64833C14.3872 4.16868 15.4609 5.04987 16.2164 6.18045C16.9718 7.31104 17.375 8.64025 17.375 10C17.3729 11.8227 16.6479 13.5702 15.3591 14.8591C14.0702 16.1479 12.3227 16.8729 10.5 16.875Z" fill="black"/>
</svg>
