<svg width="21" height="20" viewBox="0 0 21 20" fill="none" xmlns="http://www.w3.org/2000/svg">
    <path d="M8.02043 2.89449C7.99974 2.81498 7.99493 2.73216 8.00627 2.65079C8.01762 2.56942 8.0449 2.49108 8.08655 2.42026C8.1282 2.34944 8.1834 2.28752 8.24901 2.23806C8.31461 2.1886 8.38932 2.15255 8.46887 2.13199C9.80123 1.78836 11.199 1.78836 12.5314 2.13199C12.6789 2.16977 12.8076 2.26015 12.8933 2.38615C12.9789 2.51214 13.0156 2.66507 12.9964 2.81619C12.9772 2.96731 12.9035 3.10623 12.7891 3.20682C12.6747 3.30741 12.5275 3.36276 12.3751 3.36246C12.3224 3.36218 12.2699 3.35536 12.2189 3.34214C11.0915 3.05137 9.90875 3.05137 8.78137 3.34214C8.62111 3.38349 8.45099 3.35957 8.30834 3.27565C8.16569 3.19173 8.06214 3.05465 8.02043 2.89449ZM4.70246 4.30777C3.7389 5.28896 3.04002 6.49857 2.67121 7.82339C2.62697 7.98315 2.64801 8.15393 2.72969 8.29817C2.81137 8.44241 2.947 8.5483 3.10676 8.59253C3.26651 8.63677 3.43729 8.61574 3.58153 8.53406C3.72577 8.45237 3.83166 8.31674 3.8759 8.15699C4.18767 7.03556 4.77906 6.01165 5.59465 5.18121C5.70132 5.06121 5.75773 4.90476 5.75217 4.74429C5.7466 4.58383 5.6795 4.43166 5.56477 4.31934C5.45003 4.20702 5.29647 4.14316 5.13593 4.14101C4.97538 4.13885 4.82016 4.19857 4.70246 4.30777ZM3.8759 11.8398C3.85394 11.7607 3.81662 11.6867 3.76607 11.622C3.71551 11.5573 3.65271 11.5033 3.58126 11.4628C3.5098 11.4224 3.43108 11.3965 3.3496 11.3865C3.26812 11.3765 3.18547 11.3827 3.10637 11.4046C3.02726 11.4266 2.95326 11.4639 2.88859 11.5145C2.82391 11.565 2.76982 11.6278 2.72941 11.6993C2.689 11.7707 2.66307 11.8495 2.65308 11.9309C2.64309 12.0124 2.64925 12.0951 2.67121 12.1742C3.04024 13.4989 3.73909 14.7085 4.70246 15.6898C4.8187 15.808 4.97714 15.8752 5.14291 15.8766C5.30869 15.878 5.46824 15.8135 5.58644 15.6972C5.70465 15.581 5.77184 15.4225 5.77323 15.2568C5.77463 15.091 5.7101 14.9314 5.59387 14.8132C4.77929 13.9831 4.18825 12.9601 3.8759 11.8398ZM12.2189 16.6578C11.0915 16.9488 9.90871 16.9488 8.78137 16.6578C8.70144 16.6358 8.61795 16.63 8.53576 16.6406C8.45356 16.6512 8.3743 16.6781 8.30258 16.7196C8.23086 16.7612 8.16812 16.8166 8.11802 16.8826C8.06791 16.9486 8.03143 17.0239 8.01071 17.1042C7.98999 17.1844 7.98543 17.268 7.99731 17.35C8.00919 17.4321 8.03726 17.5109 8.0799 17.582C8.12253 17.653 8.17888 17.7149 8.24566 17.764C8.31244 17.8131 8.38831 17.8484 8.46887 17.8679C9.80123 18.2116 11.199 18.2116 12.5314 17.8679C12.6896 17.8245 12.8244 17.7205 12.9067 17.5785C12.9889 17.4365 13.012 17.2679 12.971 17.109C12.93 16.9501 12.8281 16.8137 12.6874 16.7293C12.5466 16.6449 12.3784 16.6192 12.2189 16.6578ZM17.8946 11.4062C17.8155 11.3842 17.7328 11.3781 17.6513 11.3881C17.5697 11.3982 17.491 11.4242 17.4195 11.4647C17.348 11.5051 17.2853 11.5593 17.2347 11.6241C17.1842 11.6889 17.147 11.763 17.1251 11.8421C16.8135 12.9634 16.2221 13.9871 15.4064 14.8171C15.3489 14.8757 15.3035 14.9451 15.2727 15.0212C15.242 15.0973 15.2266 15.1788 15.2274 15.2608C15.2282 15.3429 15.2451 15.4241 15.2772 15.4996C15.3093 15.5751 15.356 15.6436 15.4146 15.7011C15.4732 15.7586 15.5425 15.804 15.6186 15.8347C15.6947 15.8655 15.7762 15.8809 15.8583 15.8801C15.9403 15.8793 16.0215 15.8624 16.097 15.8303C16.1726 15.7982 16.241 15.7515 16.2986 15.6929C17.2622 14.7118 17.9612 13.5022 18.3298 12.1773C18.352 12.0981 18.3584 12.0153 18.3485 11.9336C18.3386 11.852 18.3127 11.773 18.2723 11.7014C18.2319 11.6298 18.1777 11.5668 18.1129 11.5162C18.0481 11.4655 17.9739 11.4281 17.8946 11.4062ZM17.1243 8.16089C17.1463 8.24 17.1836 8.314 17.2342 8.37867C17.2847 8.44335 17.3475 8.49744 17.419 8.53785C17.4904 8.57826 17.5692 8.60419 17.6506 8.61418C17.7321 8.62417 17.8148 8.61801 17.8939 8.59605C17.973 8.57409 18.047 8.53677 18.1116 8.48622C18.1763 8.43567 18.2304 8.37287 18.2708 8.30141C18.3112 8.22995 18.3372 8.15123 18.3472 8.06975C18.3571 7.98827 18.351 7.90562 18.329 7.82652C17.9604 6.50163 17.2615 5.29198 16.2978 4.31089C16.2402 4.25236 16.1717 4.20574 16.0961 4.17369C16.0205 4.14164 15.9394 4.12479 15.8573 4.1241C15.7752 4.12342 15.6938 4.1389 15.6177 4.16968C15.5416 4.20045 15.4723 4.24592 15.4138 4.30347C15.3553 4.36103 15.3086 4.42955 15.2766 4.50512C15.2445 4.5807 15.2277 4.66184 15.227 4.74393C15.2263 4.82601 15.2418 4.90743 15.2726 4.98353C15.3033 5.05963 15.3488 5.12893 15.4064 5.18746C16.2212 6.0171 16.8123 7.03988 17.1243 8.16011V8.16089Z" fill="#AFAFAF"/>
</svg>
