<svg width="20" height="20" viewBox="0 0 20 20" fill="none" xmlns="http://www.w3.org/2000/svg">
<path d="M18 10C18 11.4649 17.5711 12.8978 16.7661 14.1217C15.9611 15.3456 14.8153 16.3069 13.4701 16.887C12.125 17.4672 10.6394 17.6407 9.19683 17.3861C7.75421 17.1316 6.41772 16.4602 5.35234 15.4547C5.29263 15.3983 5.24462 15.3307 5.21105 15.2557C5.17748 15.1807 5.15901 15.0998 5.15668 15.0177C5.15436 14.9356 5.16824 14.8538 5.19752 14.7771C5.2268 14.7003 5.27092 14.6301 5.32734 14.5704C5.4413 14.4498 5.5985 14.3794 5.76435 14.3747C5.84648 14.3724 5.92825 14.3863 6.00501 14.4155C6.08177 14.4448 6.15201 14.4889 6.21172 14.5454C7.10527 15.3883 8.22742 15.9493 9.43796 16.1582C10.6485 16.367 11.8938 16.2145 13.0181 15.7197C14.1425 15.2249 15.0961 14.4097 15.7598 13.376C16.4236 12.3424 16.7679 11.136 16.75 9.90769C16.732 8.67939 16.3524 7.48362 15.6587 6.46981C14.965 5.45599 13.988 4.66907 12.8496 4.20739C11.7112 3.7457 10.462 3.62972 9.25812 3.87394C8.0542 4.11815 6.94895 4.71174 6.08047 5.58052C5.80469 5.85942 5.54531 6.13364 5.29297 6.4063L6.56719 7.68286C6.6547 7.77027 6.7143 7.88168 6.73846 8.00298C6.76261 8.12428 6.75023 8.25003 6.70289 8.36429C6.65554 8.47856 6.57536 8.5762 6.47249 8.64487C6.36962 8.71354 6.24869 8.75014 6.125 8.75005H3C2.83424 8.75005 2.67527 8.6842 2.55806 8.56699C2.44085 8.44978 2.375 8.29081 2.375 8.12505V5.00005C2.3749 4.87636 2.41151 4.75543 2.48017 4.65256C2.54884 4.54969 2.64649 4.4695 2.76076 4.42216C2.87502 4.37481 3.00076 4.36243 3.12207 4.38659C3.24337 4.41075 3.35478 4.47035 3.44219 4.55786L4.40625 5.52348C4.65781 5.25083 4.91719 4.97661 5.19219 4.69927C6.24069 3.64897 7.57723 2.93336 9.03262 2.643C10.488 2.35264 11.9968 2.50059 13.3681 3.06811C14.7394 3.63564 15.9114 4.59724 16.736 5.83119C17.5605 7.06514 18.0004 8.51597 18 10ZM10.5 5.62505C10.3342 5.62505 10.1753 5.69089 10.0581 5.8081C9.94085 5.92531 9.875 6.08429 9.875 6.25005V10C9.87497 10.1079 9.90287 10.214 9.95599 10.3079C10.0091 10.4019 10.0856 10.4804 10.1781 10.536L13.3031 12.411C13.3735 12.4533 13.4515 12.4812 13.5327 12.4934C13.6139 12.5055 13.6967 12.5015 13.7764 12.4816C13.856 12.4617 13.931 12.4264 13.997 12.3775C14.063 12.3287 14.1187 12.2673 14.1609 12.1969C14.2032 12.1265 14.2312 12.0485 14.2433 11.9673C14.2554 11.8861 14.2514 11.8033 14.2316 11.7237C14.2117 11.644 14.1763 11.5691 14.1275 11.5031C14.0786 11.4371 14.0173 11.3814 13.9469 11.3391L11.125 9.64614V6.25005C11.125 6.08429 11.0592 5.92531 10.9419 5.8081C10.8247 5.69089 10.6658 5.62505 10.5 5.62505Z" fill="#AFAFAF"/>
</svg>
