<svg width="27" height="20" viewBox="0 0 27 20" fill="none" xmlns="http://www.w3.org/2000/svg">
    <path d="M19.25 5.79672V5.1875C19.25 2.44438 15.1123 0.375 9.625 0.375C4.13766 0.375 0 2.44438 0 5.1875V9.5625C0 11.8473 2.87109 13.663 7 14.2066V14.8125C7 17.5556 11.1377 19.625 16.625 19.625C22.1123 19.625 26.25 17.5556 26.25 14.8125V10.4375C26.25 8.17344 23.4697 6.35563 19.25 5.79672ZM24.5 10.4375C24.5 11.8834 21.1323 13.5 16.625 13.5C16.217 13.5 15.8123 13.4858 15.4131 13.4595C17.7723 12.5998 19.25 11.2031 19.25 9.5625V7.56531C22.517 8.05203 24.5 9.37328 24.5 10.4375ZM7 12.4336V9.83156C7.87038 9.94497 8.74726 10.0012 9.625 10C10.5027 10.0012 11.3796 9.94497 12.25 9.83156V12.4336C11.3809 12.562 10.5035 12.626 9.625 12.625C8.74648 12.626 7.86909 12.562 7 12.4336ZM17.5 8.02359V9.5625C17.5 10.4802 16.1427 11.4656 14 12.0639V9.50781C15.412 9.16547 16.6075 8.65578 17.5 8.02359ZM9.625 2.125C14.1323 2.125 17.5 3.74156 17.5 5.1875C17.5 6.63344 14.1323 8.25 9.625 8.25C5.11766 8.25 1.75 6.63344 1.75 5.1875C1.75 3.74156 5.11766 2.125 9.625 2.125ZM1.75 9.5625V8.02359C2.6425 8.65578 3.83797 9.16547 5.25 9.50781V12.0639C3.10734 11.4656 1.75 10.4802 1.75 9.5625ZM8.75 14.8125V14.3564C9.03766 14.3673 9.32859 14.375 9.625 14.375C10.0494 14.375 10.4639 14.3608 10.8708 14.3367C11.3228 14.4985 11.7832 14.6358 12.25 14.748V17.3139C10.1073 16.7156 8.75 15.7302 8.75 14.8125ZM14 17.6836V15.075C14.8701 15.192 15.7471 15.2504 16.625 15.25C17.5027 15.2512 18.3796 15.195 19.25 15.0816V17.6836C17.5093 17.9388 15.7407 17.9388 14 17.6836ZM21 17.3139V14.7578C22.412 14.4155 23.6075 13.9058 24.5 13.2736V14.8125C24.5 15.7302 23.1427 16.7156 21 17.3139Z" fill="#0F0F0F"/>
</svg>
