<svg width="24" height="25" viewBox="0 0 24 25" fill="none" xmlns="http://www.w3.org/2000/svg">
    <path d="M5.05499 3.30245C4.98913 3.22821 4.90918 3.16777 4.81979 3.12465C4.7304 3.08153 4.63334 3.05659 4.53423 3.05125C4.43513 3.04592 4.33595 3.06031 4.24245 3.09359C4.14895 3.12687 4.06298 3.17838 3.98953 3.24513C3.91608 3.31188 3.85661 3.39254 3.81457 3.48245C3.77252 3.57235 3.74874 3.6697 3.7446 3.76886C3.74045 3.86802 3.75603 3.96702 3.79043 4.06012C3.82483 4.15321 3.87737 4.23856 3.94499 4.3112L5.74874 6.29589C2.34374 8.38558 0.879366 11.6068 0.814679 11.7531C0.772035 11.849 0.75 11.9528 0.75 12.0578C0.75 12.1627 0.772035 12.2665 0.814679 12.3624C0.847491 12.4365 1.64155 14.1971 3.40687 15.9625C5.75905 18.3137 8.72999 19.5568 12 19.5568C13.6806 19.5664 15.3442 19.2204 16.8816 18.5415L18.9441 20.8112C19.0099 20.8854 19.0899 20.9459 19.1793 20.989C19.2686 21.0321 19.3657 21.0571 19.4648 21.0624C19.5639 21.0677 19.6631 21.0533 19.7566 21.0201C19.8501 20.9868 19.9361 20.9353 20.0095 20.8685C20.083 20.8018 20.1424 20.7211 20.1845 20.6312C20.2265 20.5413 20.2503 20.444 20.2544 20.3448C20.2586 20.2456 20.243 20.1466 20.2086 20.0535C20.1742 19.9604 20.1217 19.8751 20.0541 19.8025L5.05499 3.30245ZM9.49218 10.4125L13.3987 14.7109C12.8105 15.0204 12.136 15.1257 11.4814 15.0104C10.8268 14.895 10.229 14.5655 9.78189 14.0736C9.33481 13.5817 9.06377 12.9552 9.01134 12.2925C8.9589 11.6299 9.12803 10.9686 9.49218 10.4125ZM12 18.0568C9.11437 18.0568 6.59343 17.0078 4.50655 14.9396C3.64997 14.0884 2.92145 13.1173 2.34374 12.0568C2.78343 11.2328 4.18687 8.92651 6.7828 7.42745L8.4703 9.27901C7.81699 10.1157 7.48052 11.1565 7.52036 12.2173C7.56021 13.2781 7.97379 14.2907 8.68802 15.0761C9.40225 15.8614 10.3711 16.369 11.4234 16.5091C12.4757 16.6491 13.5436 16.4127 14.4384 15.8415L15.8194 17.3603C14.6006 17.8278 13.3053 18.0641 12 18.0568ZM12.5625 9.11026C12.3671 9.07297 12.1944 8.95956 12.0826 8.795C11.9708 8.63044 11.9289 8.42819 11.9662 8.23276C12.0035 8.03733 12.1169 7.86472 12.2815 7.7529C12.4461 7.64108 12.6483 7.59922 12.8437 7.63651C13.7996 7.82183 14.67 8.31118 15.325 9.0316C15.98 9.75201 16.3846 10.6649 16.4784 11.634C16.4969 11.8321 16.436 12.0293 16.3091 12.1825C16.1822 12.3356 15.9996 12.432 15.8016 12.4506C15.7781 12.452 15.7547 12.452 15.7312 12.4506C15.5438 12.4514 15.3628 12.382 15.224 12.256C15.0852 12.13 14.9986 11.9566 14.9812 11.77C14.9181 11.1253 14.6486 10.5183 14.2128 10.0391C13.7771 9.55989 13.1982 9.23414 12.5625 9.11026ZM23.1825 12.3624C23.1431 12.4506 22.1934 14.5534 20.055 16.4687C19.9819 16.5362 19.8961 16.5885 19.8027 16.6226C19.7092 16.6567 19.6099 16.6718 19.5105 16.6671C19.4111 16.6624 19.3136 16.6379 19.2238 16.5952C19.1339 16.5524 19.0535 16.4923 18.9871 16.4181C18.9208 16.344 18.8698 16.2574 18.8373 16.1634C18.8047 16.0694 18.7912 15.9698 18.7975 15.8705C18.8037 15.7712 18.8297 15.6742 18.8739 15.585C18.918 15.4959 18.9795 15.4164 19.0547 15.3512C20.1038 14.4087 20.9851 13.2947 21.6609 12.0568C21.0819 10.9954 20.3518 10.0237 19.4934 9.17214C17.4066 7.10589 14.8856 6.05683 12 6.05683C11.392 6.05608 10.7849 6.10531 10.185 6.20401C10.0874 6.22127 9.98741 6.21902 9.89073 6.1974C9.79404 6.17578 9.70259 6.13522 9.62167 6.07805C9.54074 6.02089 9.47195 5.94826 9.41925 5.86436C9.36656 5.78046 9.33101 5.68695 9.31466 5.58923C9.29832 5.49151 9.30149 5.39152 9.32401 5.29504C9.34652 5.19855 9.38793 5.10749 9.44584 5.0271C9.50375 4.94671 9.57702 4.87859 9.6614 4.82667C9.74579 4.77476 9.83963 4.74008 9.93749 4.72464C10.6192 4.61208 11.309 4.55595 12 4.55683C15.27 4.55683 18.2409 5.79995 20.5931 8.15214C22.3584 9.91745 23.1525 11.679 23.1853 11.7531C23.2279 11.849 23.25 11.9528 23.25 12.0578C23.25 12.1627 23.2279 12.2665 23.1853 12.3624H23.1825Z" fill="black"/>
</svg>
