<svg width="20" height="20" viewBox="0 0 20 20" fill="none" xmlns="http://www.w3.org/2000/svg">
    <path d="M17.5 0.75H2.5C2.10218 0.75 1.72064 0.908035 1.43934 1.18934C1.15804 1.47064 1 1.85218 1 2.25V7.5C1 12.4425 3.3925 15.4378 5.39969 17.0803C7.56156 18.8484 9.71219 19.4484 9.80594 19.4738C9.93484 19.5088 10.0708 19.5088 10.1997 19.4738C10.2934 19.4484 12.4413 18.8484 14.6059 17.0803C16.6075 15.4378 19 12.4425 19 7.5V2.25C19 1.85218 18.842 1.47064 18.5607 1.18934C18.2794 0.908035 17.8978 0.75 17.5 0.75ZM14.2825 7.28063L9.0325 12.5306C8.96285 12.6004 8.88013 12.6557 8.78908 12.6934C8.69803 12.7312 8.60044 12.7506 8.50187 12.7506C8.40331 12.7506 8.30572 12.7312 8.21467 12.6934C8.12362 12.6557 8.0409 12.6004 7.97125 12.5306L5.72125 10.2806C5.58052 10.1399 5.50146 9.94902 5.50146 9.75C5.50146 9.55098 5.58052 9.36011 5.72125 9.21937C5.86198 9.07864 6.05285 8.99958 6.25187 8.99958C6.4509 8.99958 6.64177 9.07864 6.7825 9.21937L8.5 10.9397L13.2194 6.21937C13.2891 6.14969 13.3718 6.09442 13.4628 6.0567C13.5539 6.01899 13.6515 5.99958 13.75 5.99958C13.8485 5.99958 13.9461 6.01899 14.0372 6.0567C14.1282 6.09442 14.2109 6.14969 14.2806 6.21937C14.3503 6.28906 14.4056 6.37178 14.4433 6.46283C14.481 6.55387 14.5004 6.65145 14.5004 6.75C14.5004 6.84855 14.481 6.94613 14.4433 7.03717C14.4056 7.12822 14.3503 7.21094 14.2806 7.28063H14.2825Z" fill="#AFAFAF"/>
</svg>
