<svg width="20" height="20" viewBox="0 0 20 20" fill="currentColor" xmlns="http://www.w3.org/2000/svg">
    <path d="M3.72199 0.245634C3.60921 0.121947 3.45829 0.039545 3.29326 0.011545C3.12823 -0.0164549 2.95857 0.0115568 2.8113 0.0911212C2.66403 0.170686 2.54761 0.297229 2.48058 0.450607C2.41354 0.603985 2.39974 0.77538 2.44137 0.937509C2.20681 1.06715 2.01127 1.25727 1.87509 1.4881C1.7389 1.71892 1.66705 1.98201 1.66699 2.25001V7.50001C1.66699 12.4425 4.05949 15.4378 6.06668 17.0803C8.22855 18.8484 10.3792 19.4494 10.4729 19.4738C10.6018 19.5088 10.7378 19.5088 10.8667 19.4738C10.9942 19.4391 13.7982 18.6506 16.2189 16.2188L17.6148 17.7544C17.6807 17.8286 17.7606 17.8891 17.85 17.9322C17.9394 17.9753 18.0365 18.0002 18.1356 18.0056C18.2347 18.0109 18.3338 17.9965 18.4273 17.9632C18.5208 17.93 18.6068 17.8785 18.6803 17.8117C18.7537 17.745 18.8132 17.6643 18.8552 17.5744C18.8973 17.4845 18.9211 17.3871 18.9252 17.288C18.9293 17.1888 18.9138 17.0898 18.8794 16.9967C18.845 16.9036 18.7924 16.8183 18.7248 16.7456L3.72199 0.245634ZM10.6661 17.9644C9.33987 17.5008 8.10501 16.8088 7.0173 15.9197C4.46262 13.8291 3.16699 10.9969 3.16699 7.50001V2.25001H3.5148L15.2054 15.1078C13.9249 16.387 12.3741 17.3631 10.667 17.9644H10.6661ZM19.667 2.25001V7.50001C19.667 9.42938 19.3023 11.2134 18.5832 12.8053C18.5013 12.9866 18.3507 13.1279 18.1646 13.1981C17.9785 13.2683 17.7722 13.2618 17.5909 13.1799C17.4096 13.0979 17.2683 12.9473 17.1981 12.7612C17.1279 12.5751 17.1344 12.3688 17.2164 12.1875C17.8473 10.7916 18.167 9.2147 18.167 7.50001V2.25001H7.90324C7.70433 2.25001 7.51356 2.17099 7.37291 2.03034C7.23226 1.88969 7.15324 1.69892 7.15324 1.50001C7.15324 1.3011 7.23226 1.11033 7.37291 0.969679C7.51356 0.829027 7.70433 0.750009 7.90324 0.750009H18.167C18.5648 0.750009 18.9463 0.908044 19.2277 1.18935C19.509 1.47065 19.667 1.85218 19.667 2.25001Z" fill="#AFAFAF"/>
</svg>
