<svg width="20" height="20" viewBox="0 0 20 20" fill="none" xmlns="http://www.w3.org/2000/svg">
    <path d="M14.0381 6.96193C13.8362 5.87472 13.3412 4.86331 12.6065 4.0369C11.8717 3.21049 10.9252 2.60048 9.86912 2.27274C8.81301 1.945 7.68744 1.91197 6.61394 2.17723C5.54043 2.4425 4.55979 2.99596 3.77787 3.77787C2.99596 4.55979 2.4425 5.54043 2.17723 6.61394C1.91197 7.68744 1.945 8.81301 2.27274 9.86912C2.60048 10.9252 3.21049 11.8717 4.0369 12.6065C4.86331 13.3412 5.87472 13.8362 6.96193 14.0381C7.16379 15.1253 7.65881 16.1367 8.39354 16.9631C9.12826 17.7895 10.0748 18.3995 11.1309 18.7273C12.187 19.055 13.3126 19.088 14.3861 18.8228C15.4596 18.5575 16.4402 18.004 17.2221 17.2221C18.004 16.4402 18.5575 15.4596 18.8228 14.3861C19.088 13.3126 19.055 12.187 18.7273 11.1309C18.3995 10.0748 17.7895 9.12826 16.9631 8.39354C16.1367 7.65881 15.1253 7.16379 14.0381 6.96193ZM3.21596 8.07198C3.21363 6.88839 3.64365 5.74469 4.42522 4.85584C5.20679 3.96699 6.28608 3.39418 7.46025 3.24508C8.63442 3.09598 9.82262 3.38085 10.8015 4.04615C11.7805 4.71144 12.4827 5.71136 12.7763 6.85798C11.2199 6.89888 9.7386 7.53565 8.63805 8.63691C7.5375 9.73816 6.90167 11.2199 6.86177 12.7763C5.81899 12.5064 4.89527 11.8981 4.23545 11.0468C3.57564 10.1954 3.21706 9.1491 3.21596 8.07198ZM12.928 17.784C11.8514 17.7832 10.8055 17.4251 9.95419 16.766C9.10288 16.107 8.49428 15.1841 8.22374 14.142C9.78077 14.1021 11.263 13.4657 12.3644 12.3644C13.4657 11.263 14.1021 9.78077 14.142 8.22374C15.2886 8.51731 16.2886 9.21954 16.9539 10.1985C17.6192 11.1774 17.904 12.3656 17.7549 13.5398C17.6058 14.7139 17.033 15.7932 16.1442 16.5748C15.2553 17.3563 14.1116 17.7864 12.928 17.784Z" fill="#525866" stroke="#525866" stroke-width="0.25"/>
</svg>
