<svg width="50" height="50" viewBox="0 0 50 50" fill="none" xmlns="http://www.w3.org/2000/svg">
    <path d="M44.1133 20.082C43.377 19.3125 42.6152 18.5195 42.3281 17.8223C42.0625 17.1836 42.0469 16.125 42.0312 15.0996C42.002 13.1934 41.9707 11.0332 40.4688 9.53125C38.9668 8.0293 36.8066 7.99805 34.9004 7.96875C33.875 7.95312 32.8164 7.9375 32.1777 7.67188C31.4824 7.38477 30.6875 6.62305 29.918 5.88672C28.5703 4.5918 27.0391 3.125 25 3.125C22.9609 3.125 21.4316 4.5918 20.082 5.88672C19.3125 6.62305 18.5195 7.38477 17.8223 7.67188C17.1875 7.9375 16.125 7.95312 15.0996 7.96875C13.1934 7.99805 11.0332 8.0293 9.53125 9.53125C8.0293 11.0332 8.00781 13.1934 7.96875 15.0996C7.95312 16.125 7.9375 17.1836 7.67188 17.8223C7.38477 18.5176 6.62305 19.3125 5.88672 20.082C4.5918 21.4297 3.125 22.9609 3.125 25C3.125 27.0391 4.5918 28.5684 5.88672 29.918C6.62305 30.6875 7.38477 31.4805 7.67188 32.1777C7.9375 32.8164 7.95312 33.875 7.96875 34.9004C7.99805 36.8066 8.0293 38.9668 9.53125 40.4688C11.0332 41.9707 13.1934 42.002 15.0996 42.0312C16.125 42.0469 17.1836 42.0625 17.8223 42.3281C18.5176 42.6152 19.3125 43.377 20.082 44.1133C21.4297 45.4082 22.9609 46.875 25 46.875C27.0391 46.875 28.5684 45.4082 29.918 44.1133C30.6875 43.377 31.4805 42.6152 32.1777 42.3281C32.8164 42.0625 33.875 42.0469 34.9004 42.0312C36.8066 42.002 38.9668 41.9707 40.4688 40.4688C41.9707 38.9668 42.002 36.8066 42.0312 34.9004C42.0469 33.875 42.0625 32.8164 42.3281 32.1777C42.6152 31.4824 43.377 30.6875 44.1133 29.918C45.4082 28.5703 46.875 27.0391 46.875 25C46.875 22.9609 45.4082 21.4316 44.1133 20.082ZM23.4375 15.625C23.4375 15.2106 23.6021 14.8132 23.8951 14.5201C24.1882 14.2271 24.5856 14.0625 25 14.0625C25.4144 14.0625 25.8118 14.2271 26.1049 14.5201C26.3979 14.8132 26.5625 15.2106 26.5625 15.625V26.5625C26.5625 26.9769 26.3979 27.3743 26.1049 27.6674C25.8118 27.9604 25.4144 28.125 25 28.125C24.5856 28.125 24.1882 27.9604 23.8951 27.6674C23.6021 27.3743 23.4375 26.9769 23.4375 26.5625V15.625ZM25 35.9375C24.5364 35.9375 24.0833 35.8 23.6979 35.5425C23.3125 35.285 23.0121 34.9189 22.8347 34.4907C22.6573 34.0624 22.6108 33.5912 22.7013 33.1365C22.7917 32.6819 23.0149 32.2642 23.3427 31.9365C23.6705 31.6087 24.0881 31.3855 24.5428 31.295C24.9974 31.2046 25.4686 31.251 25.8969 31.4284C26.3252 31.6058 26.6912 31.9062 26.9488 32.2916C27.2063 32.6771 27.3438 33.1302 27.3438 33.5938C27.3438 34.2154 27.0968 34.8115 26.6573 35.251C26.2177 35.6906 25.6216 35.9375 25 35.9375Z" fill="#FFC069"/>
</svg>
